<svg width="16" height="16" viewBox="0 0 16 16" fill="none" xmlns="http://www.w3.org/2000/svg">
<path fill-rule="evenodd" clip-rule="evenodd" d="M7.99956 13.272C4.93352 11.5257 3.22348 9.79004 2.39657 8.2841C1.55023 6.74277 1.62407 5.44459 2.09371 4.52322C3.05902 2.6294 5.80409 2.02382 7.4766 4.13914L7.99952 4.8005L8.52248 4.13917C10.1953 2.02376 12.9405 2.62945 13.9058 4.52322C14.3754 5.44457 14.4492 6.74275 13.6028 8.28408C12.7759 9.79003 11.0657 11.5257 7.99956 13.272ZM7.99958 2.73775C5.64678 0.502007 2.17585 1.42603 0.905793 3.91772C0.208765 5.28519 0.199244 7.05261 1.22784 8.92585C2.2473 10.7825 4.27991 12.7422 7.67706 14.6199L7.99955 14.7981L8.32204 14.6199C11.7193 12.7422 13.752 10.7825 14.7716 8.92586C15.8002 7.05263 15.7907 5.28521 15.0937 3.91772C13.8236 1.42599 10.3526 0.502041 7.99958 2.73775Z" fill="#FF5A30"/>
</svg>
