<svg width="22" height="20" viewBox="0 0 22 20" fill="none" xmlns="http://www.w3.org/2000/svg">
<path d="M9.69984 8.70044L3.49986 0.600442C3.09986 0.200442 2.59986 0.000442505 2.09986 0.000442505C1.59986 0.000442505 1.09986 0.200442 0.699864 0.600442C-0.000133812 1.40044 -0.000133812 2.60044 0.699864 3.40044L5.59985 10.0004L0.699864 16.6004C-0.000133812 17.4004 -0.000133812 18.6004 0.699864 19.4004C1.09986 19.8004 1.59986 20.0004 2.09986 20.0004C2.59986 20.0004 3.09986 19.8004 3.49986 19.4004L9.69984 11.3004C10.3998 10.7004 10.3998 9.50044 9.69984 8.70044Z" fill="#FF5A30"/>
<path d="M12.3427 8.70044L18.5427 0.600442C18.9427 0.200442 19.4427 0.000442505 19.9427 0.000442505C20.4427 0.000442505 20.9427 0.200442 21.3427 0.600442C22.0427 1.40044 22.0427 2.60044 21.3427 3.40044L16.4427 10.0004L21.3427 16.6004C22.0427 17.4004 22.0427 18.6004 21.3427 19.4004C20.9427 19.8004 20.4427 20.0004 19.9427 20.0004C19.4427 20.0004 18.9427 19.8004 18.5427 19.4004L12.3427 11.3004C11.6427 10.7004 11.6427 9.50044 12.3427 8.70044Z" fill="#FF5A30"/>
</svg>
