<svg width="105" height="20" viewBox="0 0 105 20" fill="none" xmlns="http://www.w3.org/2000/svg">
<path d="M-0.000213623 10.1C-0.000213623 3.99999 3.29979 0.299992 8.69979 0.299992C12.7998 0.299992 16.0998 2.79999 16.6998 6.49999C16.7998 6.89999 16.4998 7.19999 16.0998 7.19999H13.4998C13.1998 7.19999 12.9998 6.99999 12.8998 6.69999C12.3998 4.79999 10.7998 3.59999 8.69979 3.59999C5.79979 3.59999 3.99979 6.09999 3.99979 10.1C3.99979 14.1 5.79979 16.6 8.79979 16.6C10.8998 16.6 12.3998 15.5 12.9998 13.7C13.0998 13.4 13.2998 13.2 13.5998 13.2H16.1998C16.5998 13.2 16.8998 13.6 16.7998 13.9C16.1998 17.5 12.9998 19.9 8.79979 19.9C3.29979 19.9 -0.000213623 16.1 -0.000213623 10.1Z" fill="#1E212C"/>
<path d="M24.2994 19.4002H21.3994C21.0994 19.4002 20.8994 19.2002 20.8994 18.9002V1.60025C20.8994 1.20025 21.2994 0.800248 21.6994 0.800248H28.6994C32.7994 0.800248 35.2994 3.10025 35.2994 6.70025C35.2994 8.80025 34.2994 10.7002 32.5994 11.7002C32.1994 11.9002 32.0994 12.4002 32.2994 12.7002L35.3994 18.6002C35.5994 18.9002 35.2994 19.3002 34.9994 19.3002H31.6994C31.4994 19.3002 31.2994 19.2002 31.1994 19.0002L28.2994 13.0002C28.1994 12.7002 27.8994 12.6002 27.5994 12.6002H25.2994C24.9994 12.6002 24.7994 12.8002 24.7994 13.1002V19.0002C24.8994 19.2002 24.5994 19.4002 24.2994 19.4002ZM24.8994 9.20025C24.8994 9.50025 25.0994 9.70025 25.3994 9.70025H28.3994C30.3994 9.70025 31.4994 8.60025 31.4994 6.80025C31.4994 5.00025 30.2994 3.90025 28.3994 3.90025H25.4994C25.1994 3.90025 24.9994 4.10025 24.9994 4.40025V9.20025H24.8994Z" fill="#1E212C"/>
<path d="M51.4996 19.4002H40.4996C40.0996 19.4002 39.7996 19.1002 39.7996 18.7002V1.50025C39.7996 1.10025 40.0996 0.800248 40.4996 0.800248H51.4996C51.8996 0.800248 52.1996 1.10025 52.1996 1.50025V3.40025C52.1996 3.80025 51.8996 4.10025 51.4996 4.10025H44.1996C43.8996 4.10025 43.6996 4.30025 43.6996 4.60025V8.00025C43.6996 8.30025 43.8996 8.50025 44.1996 8.50025H50.9996C51.3996 8.50025 51.6996 8.80025 51.6996 9.20025V10.9002C51.6996 11.3002 51.3996 11.6002 50.9996 11.6002H44.1996C43.8996 11.6002 43.6996 11.8002 43.6996 12.1002V15.9002C43.6996 16.2002 43.8996 16.4002 44.1996 16.4002H51.4996C51.8996 16.4002 52.1996 16.7002 52.1996 17.1002V19.0002C52.1996 19.1002 51.8996 19.4002 51.4996 19.4002Z" fill="#1E212C"/>
<path d="M66.9997 14.9002H61.2997C60.9997 14.9002 60.7997 15.1002 60.6997 15.3002L59.5997 19.0002C59.4997 19.3002 59.2997 19.4002 58.9997 19.4002H56.3997C55.9997 19.4002 55.6997 19.0002 55.7997 18.6002L61.7997 1.20025C61.8997 1.00025 62.0997 0.800248 62.3997 0.800248H66.0997C66.3997 0.800248 66.5997 1.00025 66.6997 1.20025L72.6997 18.6002C72.7997 19.0002 72.4997 19.4002 72.0997 19.4002H69.1997C68.8997 19.4002 68.6997 19.2002 68.5997 19.0002L67.4997 15.3002C67.4997 15.1002 67.1997 14.9002 66.9997 14.9002ZM62.0997 12.0002H66.1997C66.3997 12.0002 66.4997 11.8002 66.4997 11.6002L64.2997 4.60025H64.0997L61.8997 11.6002C61.7997 11.8002 61.8997 12.0002 62.0997 12.0002Z" fill="#1E212C"/>
<path d="M78.9999 18.7006V4.50064C78.9999 4.20064 78.7999 4.00064 78.4999 4.00064H74.0999C73.6999 4.00064 73.2999 3.70064 73.2999 3.20064V1.50064C73.2999 1.10064 73.5999 0.700638 74.0999 0.700638H87.6999C88.0999 0.700638 88.4999 1.00064 88.4999 1.50064V3.20064C88.4999 3.60064 88.1999 4.00064 87.6999 4.00064H83.2999C82.9999 4.00064 82.7999 4.20064 82.7999 4.50064V18.8006C82.7999 19.2006 82.4999 19.5006 82.0999 19.5006H79.5999C79.2999 19.4006 78.9999 19.1006 78.9999 18.7006Z" fill="#1E212C"/>
<path d="M103.8 19.4002H92.7997C92.3997 19.4002 92.0996 19.1002 92.0996 18.7002V1.50025C92.0996 1.10025 92.3997 0.800248 92.7997 0.800248H103.8C104.2 0.800248 104.5 1.10025 104.5 1.50025V3.40025C104.5 3.80025 104.2 4.10025 103.8 4.10025H96.4996C96.1996 4.10025 95.9996 4.30025 95.9996 4.60025V8.00025C95.9996 8.30025 96.1996 8.50025 96.4996 8.50025H103.3C103.7 8.50025 104 8.80025 104 9.20025V10.9002C104 11.3002 103.7 11.6002 103.3 11.6002H96.4996C96.1996 11.6002 95.9996 11.8002 95.9996 12.1002V15.9002C95.9996 16.2002 96.1996 16.4002 96.4996 16.4002H103.8C104.2 16.4002 104.5 16.7002 104.5 17.1002V19.0002C104.5 19.1002 104.2 19.4002 103.8 19.4002Z" fill="#1E212C"/>
</svg>
